<svg id="图层_1" data-name="图层 1" xmlns="http://www.w3.org/2000/svg" viewBox="0 0 2770.93 383.19"><defs><style>.cls-1{fill:#bf9a3c;}.cls-2{fill:#7ac60e;}.cls-3{fill:#fff927;}.cls-4{fill:#fcee21;}.cls-5{fill:#f7cc4f;}.cls-6{fill:#cc453e;}.cls-7{fill:#1e1e1e;}.cls-8{fill:#fff;}</style></defs><title>画板 1</title><path class="cls-1" d="M239.51,3.22C107.45,3.22.4,110.27.4,242.33c0,.21,0,.42,0,.63H232.18a64,64,0,1,1,14,0H478.61c0-.21,0-.42,0-.63C478.62,110.27,371.56,3.22,239.51,3.22Z"/><path class="cls-2" d="M238.89,10C110.56,10,6.53,114,6.53,242.34c0,.21,0,.41,0,.61H232.18a64,64,0,1,1,14,0H471.25c0-.2,0-.41,0-.61C471.26,114,367.23,10,238.89,10Z"/><path class="cls-3" d="M237.27,108.69,222.79,49.83A16.58,16.58,0,1,1,255,41.91a16.81,16.81,0,0,1,0,7.92l-14.48,58.86a1.67,1.67,0,0,1-3.24,0Z"/><path class="cls-3" d="M272.66,114.06l19.68-56.6a12.75,12.75,0,0,1,24.09,8.37A13,13,0,0,1,314,70l-39.18,45.34a1.28,1.28,0,0,1-2.18-1.26Z"/><line class="cls-4" x1="273.75" y1="114.69" x2="303.18" y2="63.72"/><path class="cls-3" d="M299.73,132.2l46.41-37.32a10.26,10.26,0,1,1,12.86,16,10.55,10.55,0,0,1-2.72,1.57L300.75,134a1,1,0,0,1-1-1.77Z"/><line class="cls-4" x1="300.24" y1="133.09" x2="351.22" y2="103.66"/><path class="cls-3" d="M151.55,160.66l-59.27.18a7.81,7.81,0,1,1,0-15.61,8.18,8.18,0,0,1,1.82.21l57.67,13.67a.79.79,0,0,1-.18,1.55Z"/><line class="cls-4" x1="151.64" y1="159.88" x2="93.17" y2="153.14"/><path class="cls-3" d="M325.66,161.26,382.37,144A7.81,7.81,0,1,1,386.91,159a8.18,8.18,0,0,1-1.81.32l-59.16,3.51a.79.79,0,0,1-.28-1.54Z"/><line class="cls-4" x1="325.8" y1="162.03" x2="383.74" y2="151.65"/><path class="cls-3" d="M349.25,204.9l58.86-5.9a6.59,6.59,0,0,1,1.32,13.12,7,7,0,0,1-1.32,0l-58.86-5.9a.66.66,0,0,1,0-1.32Z"/><path class="cls-3" d="M133.44,208.67l-58.86,5.9a6.59,6.59,0,1,1-1.32-13.12,7,7,0,0,1,1.32,0l58.86,5.9a.66.66,0,0,1,0,1.32Z"/><path class="cls-3" d="M174.13,134,118.6,112.44A10.26,10.26,0,0,1,126,93.31a10.55,10.55,0,0,1,2.72,1.57l46.41,37.32a1,1,0,0,1-1,1.77Z"/><line class="cls-4" x1="174.64" y1="133.09" x2="123.67" y2="103.66"/><path class="cls-3" d="M202.76,115.32,163.58,70a12.75,12.75,0,1,1,19.3-16.67,13,13,0,0,1,2.4,4.15l19.68,56.6a1.28,1.28,0,0,1-2.18,1.26Z"/><line class="cls-4" x1="203.86" y1="114.69" x2="174.43" y2="63.72"/><path class="cls-2" d="M248.86,183.11s17-7.27,17.92,2.42c.78,7.84-2.88,19.82-17.67,24.6a32.33,32.33,0,0,1-25.89-2.34c-8.94-5.06-17.78-15.86-10.5-38.69a33.07,33.07,0,0,1,15.56-19.17c5.81-3.15,13.67-5.22,23.71-3.38a45.32,45.32,0,0,1,28.81,18.52c2.9,4.12,5.32,9,5.84,14.16,0,0,1.45-29.54-30-38.26,0,0,17,3.39,24.22,12.11,0,0-16-25.67-56.67-13.56,0,0,14-5.33,21.8-4.84s-44.08-7.75-55.7,40.2c0,0-8.23,39.72,32.94,54.73,0,0,31.48,11.14,52.31-12.59,0,0,24.14-23.66,3.19-42.64a7.15,7.15,0,0,0-1.73-1.13C274.39,172,264.85,165.35,248.86,183.11Z"/><path class="cls-2" d="M252.21,178.13c.33-.75-.19-1.12,2.46-3.17.6-.56,2.46-1.79,2-5.63,0,0-.26,4-3.39,5.85,0,0-.84-5,1.78-6.62a1.39,1.39,0,0,0,.52-.54,6.38,6.38,0,0,0,.39-4.25s2.29,1.37,2.67,6.37c.08,1.83.34,3.39-4.47,6.27Z"/><polygon class="cls-5" points="102.41 290.71 124.5 290.71 126.82 333.68 163.99 290.71 181.41 303.48 159.34 333.68 188.38 354.58 172.12 375.37 126.24 339.49 126.82 375.37 100.33 375.37 102.41 290.71"/><polygon class="cls-5" points="198.33 302.56 221.63 302.56 230.83 371.8 207.22 374.75 198.33 302.56"/><polygon class="cls-5" points="249.09 298.28 272.66 294.97 279.69 333.52 289.3 303.24 299.55 304.07 305.75 338.06 313.61 294.97 331.39 298.69 316.09 375.37 298.31 372.31 293.76 338.06 285.9 372.31 263.98 375.37 249.09 298.28"/><polygon class="cls-5" points="345.87 300.49 370.12 300.49 380.27 372.5 355.46 376.01 345.87 300.49"/><path class="cls-6" d="M791.18,65.94c-1.31,1.75-3.94,3.94-8.54,4.82V141.3c-.22,1.75-17.09,7.45-28,7.45h-5.91v-18.4H707.07v75.79c0,3.29-14.68,11.61-27.6,11.61h-6.35v-87.4H631.93v11.39c0,3.29-14.9,10.73-28.7,10.73h-4.82V45.57l35.92,13.58h38.77V9.86l42.06,3.94c-.44,3.07-2,5.48-8.1,6.35v39h39.65l14.46-16ZM673.11,124.21V65.28H631.93v58.93Zm75.57,0V65.28H707.07v58.93Z"/><path class="cls-6" d="M1037.4,32.43c-1.53,2-4.16,3.72-8.76,4.82V207c-.22,2.41-14.9,9.64-26.72,9.64h-5V198.91h-124v7.23c0,3.94-12.49,11.61-25.85,11.61h-5.26v-205l33.73,13.36H994.68l14.68-16.21ZM996.87,192.77V32.21h-124V192.77Zm-41.4-75.57c38.55,5.48,34.61,28.26,21.91,32.2,5,4.38,12.92,11,18.62,16.21-.66,2.41-2.85,3.5-5.91,3.5H879.24L877.49,163h41.4V113H889.32l-1.75-6.13h31.32V65.72H881l-1.75-6.13h76.23l13.36-17.52s14.9,12,23.88,20.15c-.66,2.41-3.07,3.5-6.13,3.5H947.37v41.18h5.26l12.49-17.09s14.24,11.61,22.56,19.72c-.66,2.41-2.85,3.5-5.91,3.5H947.37V163H959l10.08-13.58a18.42,18.42,0,0,1-6.35-3.5,53.83,53.83,0,0,0-9.2-27.6Z"/><path class="cls-6" d="M1162.91,150.94c-1.31,2.41-4.6,3.72-9.86,2.63-21.25,25.63-47.53,42.06-75.79,52.57l-1.75-1.75c17.09-17.09,36.8-46,48.63-75.79Zm87-125.08s20.59,15.77,32.86,26.29c-.66,2.41-3.29,3.5-6.57,3.5h-117c-8.32,18.84-17.74,39.65-24.32,53.89h34.83V71l39.87,3.29c-.44,3.07-2.19,4.6-6.79,5.26v30h20.59l17.52-22.78s19.71,15.11,31.32,25.41c-.66,2.41-3.29,3.5-6.35,3.5h-63.09v66.15c0,21.47-4.82,32.42-39.43,35.27-.66-10.08-1.75-17.09-5.26-21.91-3.29-4.6-7.45-7.89-18.84-10.08v-2.63s21.69,1.31,26.29,1.31c3.29,0,4.16-.88,4.16-3.29V115.67h-36.58l-8.32,9.2L1095,107.78a49.1,49.1,0,0,1,6.79-5.26c6.57-12.27,14.9-29.79,22.34-46.88h-43.81l-1.75-6.13h48.19c7-16.65,12.92-32.2,15.77-41.4l40.53,11.39c-.88,2.85-3.72,5.48-9.86,4.82-3.07,6.57-7,15.55-11.17,25.19h69.66Zm-31.54,105.37c89.81,19.06,66.81,84.77,33.52,62.65-6.79-21.47-21.69-44.47-35.27-61.34Z"/><path class="cls-6" d="M1511.21,186.64s12.27,12.27,18.62,20.15c-.66,2.41-2.63,3.5-5.7,3.5H1324.57l-1.75-6.13h27.6V129l31.32,11.83h87.4l8.1-10.3H1477c-.44-8.1-1.1-14.24-4.16-17.74-2.63-3.07-5.92-6.35-16.21-7.89v-2.63s17.3.88,21.47.88c3.29,0,3.94-1.53,3.94-3.94V80.18h-26.72c-3.07,20.15-13.8,41.4-50.16,55l-1.53-1.75c20.81-19.72,22.78-45.56,22.78-70.1V12.93L1461,24.76h18.84l13.58-15.11,28.48,21.47c-1.31,1.75-3.72,3.5-8.11,4.38v65.94c0,15.55-3.5,24.31-25.63,27.82l23.66,16c-1.53,2.19-3.94,3.5-9.86,4.6V202Zm-145.89-68.78c0,2-8.54,8.11-23,8.11h-5.26V15.56l31.11,11.61h13.36l12.71-14.24L1421,33.3c-1.31,1.75-4.16,3.72-8.76,4.6V110c-.22,1.53-14.24,6.57-23.66,6.57h-4.82V104.06h-18.4Zm0-84.56V62.22h18.4V33.3Zm18.4,64.62V68.35h-18.4V97.92Zm-3.94,106.24h11.61V147h-11.61ZM1419.86,147v57.17h11.39V147ZM1482.07,74V55.65h-25.63v7.67A89.88,89.88,0,0,1,1456,74Zm-25.63-43.15V49.51h25.63V30.89Zm3.29,116.1v57.17h11.39V147Z"/><path class="cls-7" d="M1739.9,66.82c-6.57,36.14-20.37,67.47-44.69,92.66,24.32,13.14,52.13,21.69,81.05,27.38l-.66,2.63c-16,2.41-27.16,12.49-32.86,28.48-27.16-9.42-50.82-21.69-70.32-39.21-25.63,18.18-59.58,31.33-103.61,38.77l-.88-2.19c39-13.14,68.13-30.89,89.16-52.35-19.28-23.44-33.3-54.33-40.74-96.17h-44.47l-1.75-6.13h154l17.74-24.1s19.93,16,31.32,26.73c-.66,2.41-3.07,3.5-6.35,3.5Zm-119.82,0c9.64,34.61,28.26,59.58,52.35,78,16.65-23,25.63-49.29,29.13-78Zm25.85-56.52c76.67,3.5,50.6,63.53,19.71,42.5-2.63-15.11-11.39-31.11-21-41.4Z"/><path class="cls-7" d="M1878.33,77.77c-.88,2-2.63,3.5-7,4.38V211.83c-.44,1.53-14.24,5.91-25,5.91h-5.7V105.59a184.76,184.76,0,0,1-27.38,21.47l-2.19-1.75c18.62-27.6,37.24-72.07,45.56-115.44l43.81,13.58c-.88,2.85-3.72,4.82-9,4.6a249.52,249.52,0,0,1-24.1,45.78Zm131.87,100.55c8.76,3.94,11.17,7.67,11.17,13.14,0,14-11.83,20.15-53.23,20.15h-22.78c-26.07,0-35.49-5.26-35.49-28.7V145a299.83,299.83,0,0,1-36.14,15.77l-1.75-2.41a295.88,295.88,0,0,0,37.9-29.13V14.46l38.55,3.94c-.22,3.07-2.41,5.48-7.89,6.35V98.58c16.87-18.84,30.67-37.9,39.65-54.11l34,25c-1.53,2-4.16,3.29-9.2,1.75a349.82,349.82,0,0,1-64.4,55.64v46.44c0,5.91,2.85,7.67,10.51,7.67h20.15c6.35,0,11.83-.22,15.33-.44,3.07-.22,5.48-1.1,7.45-3.72,3.5-5,8.11-18.4,13.14-34.61h2.19Z"/><path class="cls-7" d="M2212.39,72.29c0,1.31-2.85,3.07-7.23,4.6l27.16,25.19c-2.41,2.19-7.23,4.16-14,4.16-74.26,40.31-104.93,58.93-103.61,67.69,1.1,6.35,12,7.45,28.7,7.45h56.3c20.59,0,27.82-1.1,30.67-4.16,5-5.7,9.64-17.09,14.24-33.08h2.19l-.66,33.3c11.61,4.16,14.46,6.13,14.46,12.71,0,14.68-18,21-61.34,21h-57.17c-43.59,0-61.34-12.71-63.53-32.2-3.72-25.41,34.83-43.15,102.3-83.46h-97l-2-6.13h106l10.73-11a59.49,59.49,0,0,1-12.71,1.31h-5V49.51h-37.68v24.1c0,2.85-12.71,7.45-25.85,7.45h-5V49.51h-49.73L2061,43.38h51.26V10.08l38.55,3.29c-.22,2.85-2,5-7.67,5.91v24.1h37.68V10.08l39,3.29c-.22,2.85-1.75,5-7.45,5.91v24.1h10.29L2238,21.47s17.74,14.68,27.16,24.53c-.44,2.41-2.85,3.5-6.13,3.5h-46.66Z"/><path class="cls-7" d="M2427.06,72.73c13.58,52.57,50.6,81.71,87.18,100.77l-1.09,2.63c-13.58,1.31-25,10.73-31.11,25.85-31.54-29.57-49.94-65.28-58.27-129.24h-.22V206.58c0,3.07-14,11-26.07,11h-6.13v-93.1c-19.71,33.08-49.29,60.46-88.5,80.39l-2-2c37-32,63.09-83.68,74-130.12H2309l-1.75-6.13h84.12v-57l40.31,3.94c-.44,3.07-2,5.26-8.11,6.13V66.6h40.74L2482,42.5s19.93,16,31.54,26.73c-.44,2.41-3.07,3.5-6.35,3.5Zm8.11-57.39c66.59-1.75,42.72,50.6,15.11,32.86-2-11.83-9.2-24.32-16.65-31.76Z"/><path class="cls-7" d="M2753,32.21a15.56,15.56,0,0,1-8.76,4.6V184.67c0,19.71-5.26,30.67-40.53,33.52-1.1-9.42-2.63-15.77-7.23-20.15-4.82-4.38-10.08-7.67-24.31-9.86v-2.85s29.57,1.75,36.14,1.75c4.16,0,5.26-2,5.26-5V50.39a15,15,0,0,1-5.7,1.53c-3.07,15.33-6.79,32.64-12.49,49.94,29.79,49.94,7.45,82.36-9.2,61.77-1.31-7.67-2.85-16.65-5-26.29-10.08,20.59-23.44,39.87-41.62,55.2l-2.19-1.75c16.87-26.72,27.16-61.33,33.08-94.63-4.38-13.14-9.64-26.29-16.21-37.68a378.41,378.41,0,0,1-12,47.54c23.22,38.55,5.91,64.84-10.73,48.19-1.1-4.16-2.19-8.54-3.72-13.14-8.54,16.87-19.71,32.86-34.17,46l-2.19-1.53c12.27-22.34,20.37-50.16,25.41-77.76-6.57-16.87-14.9-34.39-25.41-48.85V206.14c0,3.94-12,11.39-25,11.39h-5V12.93l32.42,12.92h117.63l13.8-15.55Zm-39.43,14V32H2591.35V57.62l1.75-1.1a225.31,225.31,0,0,1,27.82,23c1.53-14.24,2.41-27.82,2.85-40.09l39.87,7.67c-.66,2.85-2.41,4.82-8.32,5.48l-.88,4.6,2-1.1c6.57,5.91,12.27,11.61,17.52,17.31,1.31-12.27,2.41-23.88,2.85-34.39Z"/><rect x="598.45" y="255.7" width="2172.48" height="117.01"/><path class="cls-6" d="M613.74,309A30.94,30.94,0,0,1,618,297.69a31.53,31.53,0,0,1,31.8-14.59,31.44,31.44,0,0,1,25.43,22.55H664.64a21.08,21.08,0,0,0-10-10.61,21.56,21.56,0,1,0-4.78,40.24,21.53,21.53,0,0,0,14.82-12.34h10.61a31.55,31.55,0,0,1-23.13,22.11,31.61,31.61,0,0,1-32.73-12.12,30.56,30.56,0,0,1-5.26-11.41A31.42,31.42,0,0,1,613.74,309Z"/><path class="cls-6" d="M727.48,282.48h11V345.9h-11V319.67H704.18V345.9h-11V282.48h11V308.7h23.31Z"/><path class="cls-6" d="M756.45,282.61h11V345.9h-11Z"/><path class="cls-6" d="M784.93,345.9l-.09-63.42,41.31,38.79V282.48h10.79v63.37L795.59,307l0,38.87Z"/><path class="cls-6" d="M910.13,346l-10.75,0-18.8-40.42L862.19,346H851.58l29-63.64Z"/><path class="cls-6" d="M923.26,327.81q-1.77,0-1.77-1.24V322.9q0-1.28,1.81-1.28h15.74q1.81,0,1.81,1.28v3.67q0,1.24-1.77,1.24Z"/><path class="cls-6" d="M1010.52,346l-10.75,0L981,305.56,962.58,346H952l29-63.64Z"/><path class="cls-6" d="M1058,282.57a17.65,17.65,0,0,1,11.72,4.29,18,18,0,0,1,6.28,10.39h-11.1A8.32,8.32,0,0,0,1062,294a8.06,8.06,0,0,0-4.33-1.24h-12.69a8,8,0,0,0-5.79,2.39,7.89,7.89,0,0,0-2.39,5.79,8.15,8.15,0,0,0,8.18,8.18h13a18.38,18.38,0,0,1,0,36.75H1044a18.43,18.43,0,0,1-18.35-18h11.14a8.25,8.25,0,0,0,8.18,7.83h12.07a8.2,8.2,0,0,0,0-16.41h-13a18.38,18.38,0,0,1,0-36.75Z"/><path class="cls-6" d="M1093,282.57h42.59v10h-31.67v16.85h26.45v10h-26.45v16.5h31.67v10H1093Z"/><path class="cls-6" d="M1207.9,346l-10.75,0-18.8-40.42L1160,346h-10.61l29-63.64Z"/><path class="cls-6" d="M1222.84,345.9l-.09-63.42,41.31,38.79V282.48h10.79v63.37L1233.5,307l0,38.87Z"/><path class="cls-8" d="M1313.29,309a30.94,30.94,0,0,1,4.29-11.32,31.53,31.53,0,0,1,31.8-14.59,31.45,31.45,0,0,1,25.43,22.55h-10.61a21.09,21.09,0,0,0-10-10.61,21.56,21.56,0,1,0-4.78,40.24,21.53,21.53,0,0,0,14.82-12.34h10.61a31.55,31.55,0,0,1-23.13,22.11,31.61,31.61,0,0,1-32.73-12.12,30.56,30.56,0,0,1-5.26-11.41A31.42,31.42,0,0,1,1313.29,309Z"/><path class="cls-8" d="M1459.71,282.48h11v52.45h31.8v11h-42.81Z"/><path class="cls-8" d="M1570.59,282.52v11h-19.68V345.9h-11V293.49h-19.68v-11Z"/><path class="cls-8" d="M1662.93,318.79v27h-10.17V282.48h33.88a17.17,17.17,0,0,1,12.87,5.31,17.62,17.62,0,0,1,5.31,12.87,18.1,18.1,0,0,1-12.25,17.2l16.19,28h-11.19l-15.66-27.11Zm0-26.14v16h23.71v0a8,8,0,0,0,0-16.05Z"/><path class="cls-8" d="M1726.44,282.57H1769v10h-31.67v16.85h26.45v10h-26.45v16.5H1769v10h-42.59Z"/><path class="cls-8" d="M1860.22,346l-10.75,0-18.8-40.42L1812.28,346h-10.61l29-63.64Z"/><path class="cls-8" d="M1875.17,345.9l-.09-63.42,41.31,38.79V282.48h10.79v63.37L1885.83,307l0,38.87Z"/><path class="cls-8" d="M1944.56,300.26h10.13v35.56h16.14a21.63,21.63,0,1,0,0-43.25h-26.27V282.48h26.27a31.69,31.69,0,0,1,22.42,54.13,32,32,0,0,1-22.42,9.29h-26.27Z"/><path class="cls-8" d="M2092.05,346l-10.75,0-18.8-40.42L2044.11,346H2033.5l29-63.64Z"/><path class="cls-8" d="M2117.17,318.79v27H2107V282.48h33.88a17.17,17.17,0,0,1,12.87,5.31,17.62,17.62,0,0,1,5.31,12.87,18.1,18.1,0,0,1-12.25,17.2l16.19,28H2151.8l-15.66-27.11Zm0-26.14v16h23.71v0a8,8,0,0,0,0-16.05Z"/><path class="cls-8" d="M2230.87,282.52v11h-19.68V345.9h-11V293.49h-19.68v-11Z"/><path class="cls-8" d="M2264.49,345.9l-.09-63.42,41.31,38.79V282.48h10.79v63.37L2275.15,307l0,38.87Z"/><path class="cls-8" d="M2334.06,282.57h42.59v10H2345v16.85h26.45v10H2345v16.5h31.67v10h-42.59Z"/><path class="cls-8" d="M2443.56,282.52v11h-19.68V345.9h-11V293.49h-19.68v-11Z"/><path class="cls-8" d="M2478.23,345.9,2460.54,283h9.86l9.42,34.14q3-6.68,7.61-17.38l1.81-4.2q1.06-2.39,1.86-4.25,2.12-4.86,3.89-8.89h.71q1.77,4,3.89,8.89.8,1.86,1.86,4.25l1.81,4.2q4.64,10.7,7.61,17.38l9.42-34.1,9.86,0-17.69,62.93-.62-1.42-16.5-37.9-16.5,37.9Z"/><path class="cls-8" d="M2610.73,306.94a31.07,31.07,0,0,1-3.89,23.93,30.53,30.53,0,0,1-8.23,8.93,31.61,31.61,0,0,1-35.34,1.37,31.07,31.07,0,0,1-8.93-8.27,31.59,31.59,0,0,1-5.66-24,31.71,31.71,0,0,1,12.56-20.3,32.1,32.1,0,0,1,24-5.66,31.57,31.57,0,0,1,25.52,24Zm-25.87,28.3a21.61,21.61,0,1,0-16.28-2.65A21,21,0,0,0,2584.86,335.24Z"/><path class="cls-8" d="M2639.43,318.79v27h-10.17V282.48h33.88a17.17,17.17,0,0,1,12.87,5.31,17.62,17.62,0,0,1,5.31,12.87,18.1,18.1,0,0,1-12.25,17.2l16.19,28h-11.19l-15.66-27.11Zm0-26.14v16h23.71v0a8,8,0,0,0,0-16.05Z"/><path class="cls-8" d="M2702.85,282.43h10.22V345.9h-10.22Zm40.73,63.42-26.71-36,21.67-27.42v0h12.56l-22.29,28.22,27.29,35.2Z"/><path class="cls-8" d="M1392.92,329.77s0-.72-.05-2.15V283.27h11.72V327.4a11.66,11.66,0,0,0,.31,2.19,10.13,10.13,0,0,0,5.32,6.4,13,13,0,0,0,9,1.25,12.09,12.09,0,0,0,6.61-3.67,9.27,9.27,0,0,0,2.53-6.36v-44h11.72v44.18a18.44,18.44,0,0,1-5.11,12.44,23.51,23.51,0,0,1-13.07,7.25,25.81,25.81,0,0,1-17.82-2.51q-8.31-4.48-10.59-12.71Z"/><path class="cls-8" d="M1586.92,329.24s0-.72-.05-2.15V282.73h11.72v44.14a11.66,11.66,0,0,0,.31,2.19,10.13,10.13,0,0,0,5.32,6.4,13,13,0,0,0,9,1.25,12.09,12.09,0,0,0,6.61-3.67,9.27,9.27,0,0,0,2.53-6.36v-44h11.72v44.18a18.44,18.44,0,0,1-5.11,12.44,23.51,23.51,0,0,1-13.07,7.25,25.81,25.81,0,0,1-17.82-2.51q-8.31-4.48-10.59-12.71Z"/></svg>